<?xml version="1.0" encoding="UTF-8"?>
<!-- Generator: Adobe Illustrator 21.0.0, SVG Export Plug-In . SVG Version: 6.00 Build 0)  -->
<svg version="1.1" id="图层_1" xmlns="http://www.w3.org/2000/svg" xmlns:xlink="http://www.w3.org/1999/xlink" x="0px" y="0px" viewBox="0 0 186 186" style="enable-background:new 0 0 186 186;" xml:space="preserve">
<style type="text/css">
	.st0{fill:#F59C25;}
	.st1{fill:#FFFFFF;}
</style>
<title>审批186</title>
<desc>Created with Sketch.</desc>
<g id="Symbols">
	<g id="审批186">
		<g>
			<rect id="Rectangle-68" class="st0" width="186" height="186"/>
			<path id="Combined-Shape" class="st1" d="M136,101.3V42.7c0-4.3-3.5-7.7-7.7-7.7H57.7c-4.3,0-7.7,3.5-7.7,7.7v96.5     c0,4.3,3.5,7.7,7.7,7.7h39.8c-5.3-5.4-8.6-12.8-8.6-21c0-16.6,13.4-30,30-30C125.3,96,131.2,97.9,136,101.3z M63,63.5     c0-1.4,1.1-2.5,2.5-2.5h55c1.4,0,2.5,1.1,2.5,2.5l0,0c0,1.4-1.1,2.5-2.5,2.5h-55C64.1,66,63,64.9,63,63.5L63,63.5z M63,84.5     c0-1.4,1.1-2.5,2.5-2.5h31c1.4,0,2.5,1.1,2.5,2.5c0,1.4-1.1,2.5-2.5,2.5h-31C64.1,87,63,85.9,63,84.5z M119,151     c-13.8,0-25-11.2-25-25s11.2-25,25-25s25,11.2,25,25S132.8,151,119,151z M109.2,123.3c-1-1-2.6-1-3.5,0s-1,2.6,0,3.5l11.4,11.3     l15.7-15.7c1-1,1-2.6,0-3.5c-1-1-2.6-1-3.5,0l-12.2,12.2L109.2,123.3z"/>
		</g>
	</g>
</g>
</svg>